<svg width="46" height="47" viewBox="0 0 46 47" fill="none" xmlns="http://www.w3.org/2000/svg">
<g clip-path="url(#clip0_687_1452)">
<path d="M34.7181 12.3913C33.6529 11.3261 31.9181 11.3261 30.8529 12.3913L23.2188 20.0254L15.5848 12.3913C14.5196 11.3261 12.7848 11.3261 11.7196 12.3913C10.6543 13.4565 10.6543 15.1913 11.7196 16.2565L19.3536 23.8906L11.7196 31.5247C10.6543 32.5899 10.6543 34.3247 11.7196 35.3899C12.2522 35.9225 12.9522 36.1913 13.6522 36.1913C14.3522 36.1913 15.0522 35.9225 15.5848 35.3899L23.2188 27.7558L30.8529 35.3899C31.3855 35.9225 32.0855 36.1913 32.7855 36.1913C33.4855 36.1913 34.1855 35.9225 34.7181 35.3899C35.7884 34.3247 35.7884 32.5899 34.7181 31.5247L27.0841 23.8906L34.7181 16.2565C35.7884 15.1913 35.7884 13.4565 34.7181 12.3913Z" fill="white"/>
<path d="M23.087 4.529C33.7138 4.529 42.3623 13.1775 42.3623 23.8044C42.3623 34.4312 33.7138 43.0797 23.087 43.0797C12.4601 43.0797 3.81159 34.4312 3.81159 23.8044C3.81159 13.1775 12.4601 4.529 23.087 4.529ZM23.087 0.978271C10.4819 0.978271 0.260864 11.1993 0.260864 23.8044C0.260864 36.4094 10.4819 46.6304 23.087 46.6304C35.692 46.6304 45.913 36.4094 45.913 23.8044C45.913 11.1993 35.692 0.978271 23.087 0.978271Z" fill="white"/>
</g>
<defs>
<clipPath id="clip0_687_1452">
<rect width="45.6522" height="45.6522" fill="white" transform="translate(0.260864 0.978271)"/>
</clipPath>
</defs>
</svg>
