<svg width="60" height="59" viewBox="0 0 60 59" fill="none" xmlns="http://www.w3.org/2000/svg">
<path d="M50.967 8.59496C45.4251 3.053 38.0565 0 30.2158 0C22.3751 0 15.0098 3.053 9.46459 8.59496C3.92263 14.1369 0.869629 21.5087 0.869629 29.3462C0.869629 37.1836 3.92263 44.5554 9.46459 50.0974C14.2622 54.895 20.4305 57.8234 27.0841 58.5251C27.0841 52.3273 27.0841 40.2826 27.0841 37.8559H20.3354V29.9332H27.1235C27.1595 27.1294 26.9497 24.2928 27.376 21.5153C28.75 13.4286 36.7284 13.163 43.3198 14.0713V21.1677C33.7705 20.6758 35.4987 22.4072 35.279 29.9299C35.6528 29.9332 41.1948 29.9299 43.0968 29.9299C42.7426 32.6484 42.4081 35.2587 42.0605 37.892H35.3315C35.3315 40.2268 35.3315 52.1469 35.3315 58.2497C41.221 57.22 46.6482 54.4228 50.967 50.104C56.509 44.562 59.562 37.1902 59.562 29.3527C59.562 21.5153 56.509 14.1435 50.967 8.60152V8.59496Z" fill="white"/>
</svg>
