<svg width="38" height="38" viewBox="0 0 38 38" fill="none" xmlns="http://www.w3.org/2000/svg">
<g clip-path="url(#clip0_189_2162)">
<path d="M12.14 18.67L20.54 27.07L23.15 24.41L17.41 18.67L23.15 12.93L20.54 10.27L12.14 18.67ZM2.18251e-06 18.67C1.95696e-06 16.09 0.490003 13.66 1.47 11.39C2.45 9.11997 3.78 7.13997 5.46 5.45997C7.14 3.77997 9.12 2.44997 11.39 1.46997C13.66 0.489969 16.09 -3.24745e-05 18.67 -3.27001e-05C21.25 -3.29256e-05 23.68 0.489969 25.95 1.46997C28.22 2.44997 30.2 3.77997 31.88 5.45997C33.56 7.13997 34.89 9.11996 35.87 11.39C36.85 13.66 37.34 16.09 37.34 18.67C37.34 21.25 36.85 23.68 35.87 25.95C34.89 28.22 33.56 30.2 31.88 31.88C30.2 33.56 28.22 34.89 25.95 35.87C23.68 36.85 21.25 37.34 18.67 37.34C16.09 37.34 13.66 36.85 11.39 35.87C9.12 34.89 7.14 33.56 5.46 31.88C3.78001 30.2 2.45 28.22 1.47 25.95C0.490004 23.68 2.40806e-06 21.25 2.18251e-06 18.67ZM3.73 18.67C3.73 22.84 5.18 26.37 8.07 29.26C10.96 32.15 14.5 33.6 18.66 33.6C22.82 33.6 26.36 32.15 29.25 29.26C32.14 26.37 33.59 22.83 33.59 18.67C33.59 14.51 32.14 10.97 29.25 8.06997C26.36 5.17997 22.82 3.72997 18.66 3.72997C14.5 3.72997 10.96 5.17997 8.07 8.06997C5.18 10.96 3.73 14.5 3.73 18.67Z" fill="white"/>
</g>
<defs>
<clipPath id="clip0_189_2162">
<rect width="37.34" height="37.34" fill="white" transform="translate(37.34 37.34) rotate(180)"/>
</clipPath>
</defs>
</svg>
