<svg width="38" height="38" viewBox="0 0 38 38" fill="none" xmlns="http://www.w3.org/2000/svg">
<g clip-path="url(#clip0_189_2179)">
<path d="M12.14 18.6698L20.54 27.0698L23.15 24.4098L17.41 18.6698L23.15 12.9298L20.54 10.2698L12.14 18.6698ZM2.50707e-05 18.6698C2.48451e-05 16.0898 0.490026 13.6598 1.47003 11.3898C2.45002 9.11985 3.78003 7.13985 5.46002 5.45985C7.14003 3.77985 9.12002 2.44985 11.39 1.46985C13.66 0.489847 16.09 -0.000154545 18.67 -0.00015477C21.25 -0.000154996 23.68 0.489846 25.95 1.46985C28.22 2.44985 30.2 3.77985 31.88 5.45985C33.56 7.13985 34.89 9.11984 35.87 11.3898C36.85 13.6598 37.34 16.0898 37.34 18.6698C37.34 21.2498 36.85 23.6798 35.87 25.9498C34.89 28.2198 33.56 30.1998 31.88 31.8798C30.2 33.5598 28.22 34.8898 25.95 35.8698C23.68 36.8498 21.25 37.3398 18.67 37.3398C16.09 37.3398 13.66 36.8498 11.39 35.8698C9.12003 34.8898 7.14003 33.5598 5.46003 31.8798C3.78003 30.1998 2.45003 28.2198 1.47003 25.9498C0.490027 23.6798 2.52962e-05 21.2498 2.50707e-05 18.6698ZM3.73002 18.6698C3.73002 22.8398 5.18003 26.3698 8.07003 29.2598C10.96 32.1498 14.5 33.5998 18.66 33.5998C22.82 33.5998 26.36 32.1498 29.25 29.2598C32.14 26.3698 33.59 22.8298 33.59 18.6698C33.59 14.5098 32.14 10.9698 29.25 8.06984C26.36 5.17984 22.82 3.72984 18.66 3.72984C14.5 3.72985 10.96 5.17985 8.07002 8.06985C5.18002 10.9598 3.73002 14.4998 3.73002 18.6698Z" fill="black"/>
</g>
<defs>
<clipPath id="clip0_189_2179">
<rect width="37.34" height="37.34" fill="white" transform="translate(37.34 37.3398) rotate(180)"/>
</clipPath>
</defs>
</svg>
