<svg width="38" height="38" viewBox="0 0 38 38" fill="none" xmlns="http://www.w3.org/2000/svg">
<g clip-path="url(#clip0_189_2177)">
<path d="M25.2 18.6705L16.8 10.2705L14.19 12.9305L19.93 18.6705L14.19 24.4105L16.8 27.0705L25.2 18.6705ZM37.34 18.6705C37.34 21.2505 36.85 23.6805 35.87 25.9505C34.89 28.2205 33.56 30.2005 31.88 31.8805C30.2 33.5605 28.22 34.8905 25.95 35.8705C23.68 36.8505 21.25 37.3405 18.67 37.3405C16.09 37.3405 13.66 36.8505 11.39 35.8705C9.12 34.8905 7.14 33.5605 5.46 31.8805C3.78 30.2005 2.45 28.2205 1.47 25.9505C0.49 23.6805 0 21.2505 0 18.6705C0 16.0905 0.49 13.6605 1.47 11.3905C2.45 9.12049 3.78 7.14049 5.46 5.46049C7.14 3.78049 9.12 2.45049 11.39 1.47049C13.66 0.490488 16.09 0.000488281 18.67 0.000488281C21.25 0.000488281 23.68 0.490488 25.95 1.47049C28.22 2.45049 30.2 3.78049 31.88 5.46049C33.56 7.14049 34.89 9.12049 35.87 11.3905C36.85 13.6605 37.34 16.0905 37.34 18.6705ZM33.61 18.6705C33.61 14.5005 32.16 10.9705 29.27 8.08049C26.38 5.19049 22.84 3.74049 18.68 3.74049C14.52 3.74049 10.98 5.19049 8.09 8.08049C5.2 10.9705 3.75 14.5105 3.75 18.6705C3.75 22.8305 5.2 26.3705 8.09 29.2705C10.98 32.1605 14.52 33.6105 18.68 33.6105C22.84 33.6105 26.38 32.1605 29.27 29.2705C32.16 26.3805 33.61 22.8405 33.61 18.6705Z" fill="black"/>
</g>
<defs>
<clipPath id="clip0_189_2177">
<rect width="37.34" height="37.34" fill="white" transform="translate(0 0.000488281)"/>
</clipPath>
</defs>
</svg>
