<svg width="38" height="38" viewBox="0 0 38 38" fill="none" xmlns="http://www.w3.org/2000/svg">
<g clip-path="url(#clip0_189_2160)">
<path d="M25.2 18.6707L16.8 10.2707L14.19 12.9307L19.93 18.6707L14.19 24.4107L16.8 27.0707L25.2 18.6707ZM37.34 18.6707C37.34 21.2507 36.85 23.6807 35.87 25.9507C34.89 28.2207 33.56 30.2007 31.88 31.8807C30.2 33.5607 28.22 34.8907 25.95 35.8707C23.68 36.8507 21.25 37.3407 18.67 37.3407C16.09 37.3407 13.66 36.8507 11.39 35.8707C9.12 34.8907 7.14 33.5607 5.46 31.8807C3.78 30.2007 2.45 28.2207 1.47 25.9507C0.49 23.6807 0 21.2507 0 18.6707C0 16.0907 0.49 13.6607 1.47 11.3907C2.45 9.12073 3.78 7.14073 5.46 5.46073C7.14 3.78073 9.12 2.45073 11.39 1.47073C13.66 0.490732 16.09 0.000732422 18.67 0.000732422C21.25 0.000732422 23.68 0.490732 25.95 1.47073C28.22 2.45073 30.2 3.78073 31.88 5.46073C33.56 7.14073 34.89 9.12073 35.87 11.3907C36.85 13.6607 37.34 16.0907 37.34 18.6707ZM33.61 18.6707C33.61 14.5007 32.16 10.9707 29.27 8.08073C26.38 5.19073 22.84 3.74073 18.68 3.74073C14.52 3.74073 10.98 5.19073 8.09 8.08073C5.2 10.9707 3.75 14.5107 3.75 18.6707C3.75 22.8307 5.2 26.3707 8.09 29.2707C10.98 32.1607 14.52 33.6107 18.68 33.6107C22.84 33.6107 26.38 32.1607 29.27 29.2707C32.16 26.3807 33.61 22.8407 33.61 18.6707Z" fill="white"/>
</g>
<defs>
<clipPath id="clip0_189_2160">
<rect width="37.34" height="37.34" fill="white" transform="translate(0 0.000732422)"/>
</clipPath>
</defs>
</svg>
