<svg width="1440" height="621" viewBox="0 0 1440 621" fill="none" xmlns="http://www.w3.org/2000/svg">
<path d="M1471 431.433V107.516C1471 98.6798 1463.84 91.5164 1455 91.5164H341.161C330.552 91.5164 320.377 87.3016 312.875 79.7993L244.8 11.7171C237.298 4.21481 227.124 0 216.514 0H9.89807C-12.1934 0 -30.1019 17.9086 -30.1019 40V416.801V497.437C-30.1019 519.528 -12.1934 537.437 9.89807 537.437H791.497C800.716 537.437 809.652 540.621 816.794 546.451L896.616 611.618C903.757 617.449 912.693 620.633 921.912 620.633H1372.77C1394.86 620.633 1412.77 602.725 1412.77 580.633V522.805C1412.77 512.197 1416.98 502.023 1424.48 494.522L1459.29 459.715C1466.79 452.214 1471 442.041 1471 431.433Z" fill="#F5F5F5"/>
</svg>
