<svg width="1440" height="621" viewBox="0 0 1440 621" fill="none" xmlns="http://www.w3.org/2000/svg">
<path d="M-30.1019 431.433V107.516C-30.1019 98.6798 -22.9385 91.5164 -14.1019 91.5164H466.923C477.532 91.5164 487.707 87.3016 495.208 79.7993L563.284 11.7171C570.786 4.21481 580.96 0 591.57 0H1431C1453.09 0 1471 17.9086 1471 40V416.801V497.437C1471 519.528 1453.09 537.437 1431 537.437H649.401C640.182 537.437 631.246 540.621 624.104 546.451L544.282 611.618C537.141 617.449 528.205 620.633 518.986 620.633H68.1302C46.0388 620.633 28.1302 602.725 28.1302 580.633V522.805C28.1302 512.197 23.9164 502.023 16.4158 494.522L-18.3876 459.715C-25.8882 452.214 -30.1019 442.041 -30.1019 431.433Z" fill="#F5F5F5"/>
</svg>
