<svg width="718" height="297" viewBox="0 0 718 297" fill="none" xmlns="http://www.w3.org/2000/svg">
<path d="M705.264 11.0033H359.223C353.577 11.0033 348.104 9.17114 343.729 5.81385L342.915 5.18947C338.539 1.83218 333.067 0 327.421 0H31.1721C27.7085 0 24.3644 1.1771 21.7477 3.32659L4.94019 17.1038C1.80236 19.6729 0 23.3987 0 27.3189V284.18C0 291.089 5.93909 296.688 13.2679 296.688H156.859C160.453 296.688 163.917 295.429 166.577 293.157L177.38 283.934C180.04 281.662 183.504 280.403 187.098 280.403H349.635C354.51 280.403 359.19 282.194 362.675 285.398L366.117 288.561C371.861 293.832 379.548 296.78 387.561 296.78H553.063C560.978 296.78 568.589 293.904 574.311 288.745C577.536 285.838 581.835 284.211 586.298 284.211H682.604C687.175 284.211 691.573 282.552 694.884 279.584L712.474 263.791C716.002 260.617 718 256.226 718 251.631V22.9995C718 16.3668 712.3 10.9931 705.264 10.9931V11.0033Z" fill="#34333C"/>
</svg>
