<svg width="815" height="237" viewBox="0 0 815 237" fill="none" xmlns="http://www.w3.org/2000/svg">
<path d="M14.4565 9.55968H407.247C413.656 9.55968 419.868 7.96788 424.834 5.05107L425.759 4.50861C430.725 1.5918 436.937 0 443.346 0H779.617C783.548 0 787.344 1.02266 790.314 2.89014L809.392 14.8597C812.954 17.0918 815 20.3288 815 23.7347V226.044C815 232.047 808.259 236.911 799.94 236.911H636.949C632.87 236.911 628.939 235.817 625.919 233.843L613.656 225.831C610.637 223.857 606.705 222.763 602.626 222.763H418.13C412.596 222.763 407.284 224.319 403.328 227.102L399.421 229.85C392.902 234.43 384.176 236.991 375.081 236.991H187.22C178.235 236.991 169.596 234.492 163.101 230.01C159.441 227.485 154.56 226.071 149.495 226.071H40.1776C34.989 226.071 29.9976 224.63 26.2386 222.051L6.27307 208.33C2.26764 205.573 0 201.758 0 197.765V19.982C0 14.2195 6.47028 9.55079 14.4565 9.55079V9.55968Z" fill="#34333C"/>
</svg>
