<svg width="815" height="237" viewBox="0 0 815 237" fill="none" xmlns="http://www.w3.org/2000/svg">
<g clip-path="url(#clip0_1085_828)">
<path d="M800.544 9.55968H407.753C401.344 9.55968 395.132 7.96788 390.166 5.05107L389.241 4.50861C384.275 1.5918 378.063 0 371.654 0H35.3833C31.4519 0 27.6559 1.02266 24.6858 2.89014L5.6076 14.8597C2.04585 17.0918 0 20.3288 0 23.7347V226.044C0 232.047 6.74145 236.911 15.0604 236.911H178.051C182.13 236.911 186.061 235.817 189.081 233.843L201.344 225.831C204.363 223.857 208.295 222.763 212.374 222.763H396.87C402.404 222.763 407.716 224.319 411.672 227.102L415.579 229.85C422.098 234.43 430.824 236.991 439.919 236.991H627.78C636.765 236.991 645.404 234.492 651.899 230.01C655.559 227.485 660.44 226.071 665.505 226.071H774.822C780.011 226.071 785.002 224.63 788.761 222.051L808.727 208.33C812.732 205.573 815 201.758 815 197.765V19.982C815 14.2195 808.53 9.55079 800.544 9.55079V9.55968Z" fill="#34333C"/>
</g>
<defs>
<clipPath id="clip0_1085_828">
<rect width="815" height="237" fill="white"/>
</clipPath>
</defs>
</svg>
