<svg width="1361" height="670" viewBox="0 0 1361 670" fill="none" xmlns="http://www.w3.org/2000/svg">
<path d="M0 556.045V60.4098H666.572L727 0H1361V535.451L1273.1 615.082H348.833L281.539 670H38.4541V594.488L0 556.045Z" fill="#34333C"/>
<g clip-path="url(#clip0_1221_209)">
<path d="M1303.33 62.32C1293.53 62.32 1285.56 54.35 1285.56 44.55C1285.56 34.75 1293.53 26.78 1303.33 26.78C1313.13 26.78 1321.1 34.75 1321.1 44.55C1321.1 54.35 1313.13 62.32 1303.33 62.32ZM1303.33 65.1C1314.68 65.1 1323.88 55.9 1323.88 44.55C1323.88 33.2 1314.67 24 1303.33 24C1291.98 24 1282.78 33.2 1282.78 44.55C1282.78 55.9 1291.98 65.1 1303.33 65.1Z" fill="#F25C05"/>
<path d="M1304.79 46.0799V43.1499H1301.86V46.0799H1304.79Z" fill="#F25C05"/>
<path d="M1254.55 62.32C1244.75 62.32 1236.78 54.35 1236.78 44.55C1236.78 34.75 1244.75 26.78 1254.55 26.78C1264.35 26.78 1272.32 34.75 1272.32 44.55C1272.32 54.35 1264.35 62.32 1254.55 62.32ZM1254.55 65.1C1265.9 65.1 1275.1 55.9 1275.1 44.55C1275.1 33.2 1265.9 24 1254.55 24C1243.2 24 1234 33.2 1234 44.55C1234 55.9 1243.2 65.1 1254.55 65.1Z" fill="#F25C05"/>
<path d="M1266.8 32.1802H1265.41V34.4302H1266.8V32.1802Z" fill="#F25C05"/>
<path d="M1265.51 33.4204H1264.12V35.6704H1265.51V33.4204Z" fill="#F25C05"/>
<path d="M1264.23 34.6504H1262.84V36.9004H1264.23V34.6504Z" fill="#F25C05"/>
<path d="M1262.95 35.8901H1261.56V38.1401H1262.95V35.8901Z" fill="#F25C05"/>
<path d="M1261.66 37.1304H1260.27V39.3804H1261.66V37.1304Z" fill="#F25C05"/>
<path d="M1260.38 38.3604H1258.99V40.6104H1260.38V38.3604Z" fill="#F25C05"/>
<path d="M1259.1 39.6001H1257.71V41.8501H1259.1V39.6001Z" fill="#F25C05"/>
<path d="M1257.81 40.8301H1256.42V43.0801H1257.81V40.8301Z" fill="#F25C05"/>
<path d="M1256.53 42.0703H1255.14V44.3203H1256.53V42.0703Z" fill="#F25C05"/>
<path d="M1255.24 43.3003H1253.85V45.5503H1255.24V43.3003Z" fill="#F25C05"/>
<path d="M1253.96 44.54H1252.57V46.79H1253.96V44.54Z" fill="#F25C05"/>
<path d="M1252.68 45.77H1251.29V48.02H1252.68V45.77Z" fill="#F25C05"/>
<path d="M1251.39 47.0103H1250V49.2603H1251.39V47.0103Z" fill="#F25C05"/>
<path d="M1250.11 48.25H1248.72V50.5H1250.11V48.25Z" fill="#F25C05"/>
<path d="M1248.83 49.48H1247.44V51.73H1248.83V49.48Z" fill="#F25C05"/>
<path d="M1247.54 50.7202H1246.15V52.9702H1247.54V50.7202Z" fill="#F25C05"/>
<path d="M1246.26 51.9502H1244.87V54.2002H1246.26V51.9502Z" fill="#F25C05"/>
<path d="M1244.98 53.1899H1243.59V55.4399H1244.98V53.1899Z" fill="#F25C05"/>
<path d="M1243.69 54.4204H1242.3V56.6704H1243.69V54.4204Z" fill="#F25C05"/>
<path d="M1266.8 54.4204H1265.41V56.6704H1266.8V54.4204Z" fill="#F25C05"/>
<path d="M1265.51 53.1899H1264.12V55.4399H1265.51V53.1899Z" fill="#F25C05"/>
<path d="M1264.23 51.9502H1262.84V54.2002H1264.23V51.9502Z" fill="#F25C05"/>
<path d="M1262.95 50.7202H1261.56V52.9702H1262.95V50.7202Z" fill="#F25C05"/>
<path d="M1261.66 49.48H1260.27V51.73H1261.66V49.48Z" fill="#F25C05"/>
<path d="M1260.38 48.25H1258.99V50.5H1260.38V48.25Z" fill="#F25C05"/>
<path d="M1259.1 47.0103H1257.71V49.2603H1259.1V47.0103Z" fill="#F25C05"/>
<path d="M1257.81 45.77H1256.42V48.02H1257.81V45.77Z" fill="#F25C05"/>
<path d="M1256.53 44.54H1255.14V46.79H1256.53V44.54Z" fill="#F25C05"/>
<path d="M1255.24 43.3003H1253.85V45.5503H1255.24V43.3003Z" fill="#F25C05"/>
<path d="M1253.96 42.0703H1252.57V44.3203H1253.96V42.0703Z" fill="#F25C05"/>
<path d="M1252.68 40.8301H1251.29V43.0801H1252.68V40.8301Z" fill="#F25C05"/>
<path d="M1251.39 39.6001H1250V41.8501H1251.39V39.6001Z" fill="#F25C05"/>
<path d="M1250.11 38.3604H1248.72V40.6104H1250.11V38.3604Z" fill="#F25C05"/>
<path d="M1248.83 37.1304H1247.44V39.3804H1248.83V37.1304Z" fill="#F25C05"/>
<path d="M1247.54 35.8901H1246.15V38.1401H1247.54V35.8901Z" fill="#F25C05"/>
<path d="M1246.26 34.6504H1244.87V36.9004H1246.26V34.6504Z" fill="#F25C05"/>
<path d="M1244.98 33.4204H1243.59V35.6704H1244.98V33.4204Z" fill="#F25C05"/>
<path d="M1243.69 32.1802H1242.3V34.4302H1243.69V32.1802Z" fill="#F25C05"/>
</g>
<defs>
<clipPath id="clip0_1221_209">
<rect width="89.87" height="41.1" fill="white" transform="translate(1234 24)"/>
</clipPath>
</defs>
</svg>
