<svg width="28" height="44" viewBox="0 0 28 44" fill="none" xmlns="http://www.w3.org/2000/svg">
<g clip-path="url(#clip0_1162_833)">
<path d="M25.9043 36.1528H2.09572C0.774235 36.1528 -0.220767 37.3624 0.0404208 38.659L0.34825 40.195C0.718266 42.0482 2.34447 43.3821 4.23498 43.3821H23.765C25.6555 43.3821 27.2817 42.0482 27.6517 40.195L27.9596 38.659C28.2177 37.3624 27.2258 36.1528 25.9043 36.1528ZM26.2339 39.912C26.0007 41.0843 24.9621 41.9363 23.765 41.9363H4.23498C3.03787 41.9363 1.99933 41.0843 1.76613 39.912L1.4583 38.376C1.40544 38.1148 1.52049 37.9252 1.592 37.835C1.66352 37.7448 1.82832 37.5956 2.09572 37.5956H25.9012C26.1686 37.5956 26.3303 37.7448 26.4049 37.835C26.4764 37.9252 26.5914 38.1117 26.5386 38.376L26.2308 39.912H26.2339ZM5.32326 34.7038H22.6767C24.275 34.7038 25.5685 33.4103 25.5685 31.8121V17.3504C25.5685 13.3579 22.3316 10.121 18.3391 10.121H9.66396C5.67151 10.121 2.43465 13.3579 2.43465 17.3504V31.8121C2.43465 33.4103 3.72815 34.7038 5.32637 34.7038H5.32326ZM6.76913 33.258V18.7962C6.76913 16.3989 8.71249 14.4586 11.1067 14.4586H16.8902C19.2875 14.4586 21.2278 16.402 21.2278 18.7962V33.258H6.76913ZM3.8774 17.3535C3.8774 14.1632 6.47063 11.57 9.66085 11.57H18.336C21.5263 11.57 24.1195 14.1632 24.1195 17.3535V31.8152C24.1195 32.6112 23.4696 33.2611 22.6736 33.2611V18.7993C22.6736 15.6091 20.0804 13.0159 16.8902 13.0159H11.1067C7.91649 13.0159 5.32326 15.6091 5.32326 18.7993V33.2611C4.52726 33.2611 3.8774 32.6112 3.8774 31.8152V17.3535ZM8.32382 7.22932H19.6793C21.1158 7.22932 22.0984 5.77724 21.5636 4.44642L20.5561 1.92471C20.0897 0.761799 18.9641 0 17.7142 0H10.2921C9.03898 0 7.91338 0.761799 7.45008 1.92471L6.44264 4.44642C5.90783 5.78034 6.89039 7.22932 8.32693 7.22932H8.32382ZM7.77968 4.98434L8.78712 2.46263C9.03276 1.84697 9.62354 1.44586 10.2858 1.44586H17.7079C18.3733 1.44586 18.961 1.84386 19.2067 2.46263L20.2141 4.98434C20.3136 5.2362 20.2203 5.43209 20.155 5.52848C20.0897 5.62488 19.9405 5.78656 19.67 5.78656H8.32382C8.0533 5.78656 7.90405 5.62488 7.83875 5.52848C7.77346 5.43209 7.68018 5.23309 7.77968 4.98434ZM9.66085 17.3535H18.336V18.7993H9.66085V17.3535ZM9.66085 21.6911H18.336V23.1369H9.66085V21.6911ZM9.66085 26.0287H18.336V27.4745H9.66085V26.0287ZM9.66085 30.3662H18.336V31.8121H9.66085V30.3662ZM9.66085 9.39967V7.9538H11.1067V9.39967H9.66085ZM16.8933 9.39967V7.9538H18.3391V9.39967H16.8933Z" fill="#F25C05"/>
</g>
<defs>
<clipPath id="clip0_1162_833">
<rect width="28" height="43.3821" fill="white"/>
</clipPath>
</defs>
</svg>
