<svg width="40" height="25" viewBox="0 0 40 25" fill="none" xmlns="http://www.w3.org/2000/svg">
<g clip-path="url(#clip0_1162_835)">
<path d="M25.0785 15.6421H14.9215C14.2198 15.6421 13.6519 16.21 13.6519 16.9117C13.6519 18.3124 14.7904 19.451 16.1911 19.451H23.8089C25.2096 19.451 26.3481 18.3124 26.3481 16.9117C26.3481 16.21 25.7802 15.6421 25.0785 15.6421ZM23.8089 18.1814H16.1911C15.4894 18.1814 14.9215 17.6135 14.9215 16.9117H25.0785C25.0785 17.6135 24.5106 18.1814 23.8089 18.1814ZM7.30375 18.1814C7.30375 18.8831 6.73584 19.451 6.03413 19.451C5.33242 19.451 4.76451 18.8831 4.76451 18.1814C4.76451 17.4797 5.33242 16.9117 6.03413 16.9117C6.73584 16.9117 7.30375 17.4797 7.30375 18.1814ZM35.2382 18.1814C35.2382 18.8831 34.6703 19.451 33.9686 19.451C33.2669 19.451 32.699 18.8831 32.699 18.1814C32.699 17.4797 33.2669 16.9117 33.9686 16.9117C34.6703 16.9117 35.2382 17.4797 35.2382 18.1814ZM38.7358 5.64076H35.6833C35.2027 5.64076 34.7686 5.90833 34.5529 6.33973L34.3645 6.71379L31.2 1.96567C30.542 0.980005 29.4662 0.343828 28.284 0.267377C25.5236 0.0871727 22.7604 -0.00292969 20 -0.00292969C17.2396 -0.00292969 14.4765 0.0871727 11.716 0.267377C10.5338 0.343828 9.45529 0.980005 8.8 1.96567L5.63549 6.71379L5.4471 6.33973C5.2314 5.90833 4.79727 5.64076 4.31672 5.64076H1.26416C0.567918 5.64076 0 6.20867 0 6.90492C0 7.38547 0.267577 7.8196 0.698976 8.0353L3.74061 9.55611L3.2901 10.2332C2.59386 11.2762 2.22253 12.5022 2.22253 13.7554V23.2626C2.22253 23.9643 2.79044 24.5322 3.49215 24.5322H8.57065C9.27236 24.5322 9.84027 23.9643 9.84027 23.2626V21.993H30.157V23.2626C30.157 23.9643 30.7249 24.5322 31.4266 24.5322H36.5051C37.2068 24.5322 37.7747 23.9643 37.7747 23.2626V13.7554C37.7747 12.5022 37.4034 11.2762 36.7072 10.2332L36.2567 9.55611L39.2983 8.0353C39.7297 7.8196 39.9973 7.38547 39.9973 6.90492C39.9973 6.20867 39.4294 5.64076 38.7331 5.64076H38.7358ZM4.31126 6.90765L4.80546 7.89605L4.40956 8.47216L1.28328 6.91038H4.31126V6.90765ZM36.5079 23.2626H31.4294V21.993C31.4294 21.2913 30.8614 20.7234 30.1597 20.7234H9.843C9.1413 20.7234 8.57338 21.2913 8.57338 21.993V23.2626H3.49215V13.7554C3.49215 12.7507 3.78703 11.7759 4.34403 10.9377L9.85393 2.67284C10.2935 2.01209 11.0198 1.58615 11.798 1.537C14.5201 1.35953 17.2778 1.26943 20 1.26943C22.7222 1.26943 25.4799 1.35953 28.202 1.537C28.9775 1.58888 29.7038 2.01209 30.1461 2.67284L35.656 10.9377C36.213 11.7759 36.5079 12.7479 36.5079 13.7554V23.2626ZM35.5904 8.47216L35.1945 7.89605L35.6833 6.91038H38.7113L35.5904 8.46943V8.47216ZM34.3945 11.3882L28.7672 12.3274C27.7352 12.4995 26.9843 13.3841 26.9843 14.4326C26.9843 14.7848 27.2683 15.0687 27.6205 15.0687H33.9686C35.0198 15.0687 35.8744 14.2141 35.8744 13.1629V12.6414C35.8744 12.2674 35.7106 11.9152 35.4266 11.6722C35.1399 11.4292 34.7631 11.3254 34.3973 11.3882H34.3945ZM34.6021 13.1602C34.6021 13.5097 34.3181 13.7964 33.9659 13.7964H28.5297C28.6498 13.6844 28.8027 13.608 28.9747 13.5807L34.6021 12.6414V13.1629V13.1602ZM11.2328 12.3247L5.60546 11.3855C5.24232 11.3227 4.8628 11.4264 4.57611 11.6694C4.29215 11.9124 4.12833 12.2646 4.12833 12.6387V13.1602C4.12833 14.2114 4.98294 15.066 6.03413 15.066H12.3823C12.7345 15.066 13.0184 14.7821 13.0184 14.4298C13.0184 13.3814 12.2676 12.4967 11.2355 12.3247H11.2328ZM6.0314 13.7937C5.68191 13.7937 5.39522 13.5097 5.39522 13.1575V12.636L11.0225 13.5752C11.1945 13.6025 11.3474 13.6817 11.4676 13.7909H6.0314V13.7937ZM7.39113 9.294H32.6089C32.8437 9.294 33.0594 9.16567 33.1686 8.95816C33.2778 8.75065 33.2669 8.50219 33.1358 8.3056L29.6137 3.02506C29.2833 2.52813 28.7372 2.20867 28.1584 2.17045C22.7495 1.81823 17.2451 1.81823 11.8389 2.17045C11.2601 2.20867 10.7167 2.52813 10.3836 3.02506L6.86143 8.3056C6.73038 8.49946 6.71945 8.75065 6.82867 8.95816C6.93788 9.16567 7.15358 9.294 7.3884 9.294H7.39113ZM11.4403 3.72949C11.5549 3.55748 11.7352 3.44826 11.9208 3.43734C17.2751 3.08786 22.7222 3.08786 28.0765 3.43734C28.2648 3.44826 28.4423 3.55748 28.557 3.72949L31.4212 8.02437H8.57884L11.443 3.72949H11.4403Z" fill="#F25C05"/>
</g>
<defs>
<clipPath id="clip0_1162_835">
<rect width="40" height="24.5324" fill="white"/>
</clipPath>
</defs>
</svg>
