<svg width="32" height="38" viewBox="0 0 32 38" fill="none" xmlns="http://www.w3.org/2000/svg">
<g clip-path="url(#clip0_1162_837)">
<path d="M19.0751 5.53887C19.5065 5.21866 19.8372 4.7873 20.0463 4.3083H24.6113C25.9663 4.3083 27.0724 5.41714 27.0724 6.76943V21.5389C26.6543 21.5389 26.2362 21.5759 25.8419 21.6606V6.76943C25.8419 6.09196 25.2888 5.53887 24.6113 5.53887H19.0724H19.0751ZM25.8445 35.0751C25.8445 35.7526 25.2914 36.3057 24.614 36.3057H2.46113C1.78366 36.3057 1.23057 35.7526 1.23057 35.0751V6.76943C1.23057 6.09196 1.78366 5.53887 2.46113 5.53887H8.01059C7.57923 5.23189 7.2352 4.80053 7.02613 4.3083H2.46113C1.10619 4.3083 0 5.41714 0 6.76943V35.0751C0 36.43 1.10883 37.5362 2.46113 37.5362H24.614C25.9689 37.5362 27.0751 36.4274 27.0751 35.0751V33.8445C26.657 33.8445 26.2388 33.8075 25.8445 33.7201V35.0751ZM24.614 22.0417V8C24.614 7.32253 24.0609 6.76943 23.3834 6.76943H3.6917C3.01422 6.76943 2.46113 7.32253 2.46113 8V33.8445C2.46113 34.522 3.01422 35.0751 3.6917 35.0751H23.3834C24.0609 35.0751 24.614 34.522 24.614 33.8445V33.3391C24.172 33.1432 23.7645 32.8971 23.3834 32.614V33.8445H3.6917V8H23.3834V22.7694C23.7645 22.4863 24.172 22.2402 24.614 22.0443V22.0417ZM19.6917 19.0751C19.6917 20.43 18.5829 21.5362 17.2306 21.5362C15.8783 21.5362 14.7694 20.4274 14.7694 19.0751H12.3083C12.3083 20.43 11.1995 21.5362 9.84717 21.5362C8.49487 21.5362 7.38604 20.4274 7.38604 19.0751H6.15547C5.478 19.0751 4.92491 18.522 4.92491 17.8445V15.3834C4.92491 14.7059 5.478 14.1528 6.15547 14.1528H8.00265L9.84982 10.4611H17.2332L19.0804 14.1528H20.9276C21.605 14.1528 22.1581 14.7059 22.1581 15.3834V17.8445C22.1581 18.522 21.605 19.0751 20.9276 19.0751H19.697H19.6917ZM14.1528 11.6917V14.1528H17.6963L16.4658 11.6917H14.1528ZM9.37876 14.1528H12.9223V11.6917H10.6093L9.37876 14.1528ZM11.0777 19.0751C11.0777 18.3976 10.5246 17.8445 9.84717 17.8445C9.1697 17.8445 8.61661 18.3976 8.61661 19.0751C8.61661 19.7526 9.1697 20.3057 9.84717 20.3057C10.5246 20.3057 11.0777 19.7526 11.0777 19.0751ZM18.4611 19.0751C18.4611 18.3976 17.908 17.8445 17.2306 17.8445C16.5531 17.8445 16 18.3976 16 19.0751C16 19.7526 16.5531 20.3057 17.2306 20.3057C17.908 20.3057 18.4611 19.7526 18.4611 19.0751ZM19.3583 17.8445H20.9223V15.3834H6.15283V17.8445H7.71684C8.1482 17.1062 8.93417 16.614 9.84717 16.614C10.7602 16.614 11.5461 17.1062 11.9775 17.8445H15.1029C15.5342 17.1062 16.3202 16.614 17.2332 16.614C18.1462 16.614 18.9322 17.1062 19.3635 17.8445H19.3583ZM31.5184 25.5878C31.4681 25.6752 31.4072 25.7598 31.3463 25.8472L30.6212 26.6834C30.7192 27.0036 30.7694 27.3477 30.7694 27.6917C30.7694 29.7215 29.1075 31.3834 27.0777 31.3834C26.6464 31.3834 26.2282 31.3093 25.8472 31.1611C25.392 31.0023 24.9739 30.7562 24.6166 30.436C23.865 29.7585 23.386 28.7741 23.386 27.6917C23.386 26.6093 23.865 25.6249 24.6166 24.9474C24.9739 24.6272 25.392 24.3811 25.8472 24.2223C26.2282 24.0741 26.6464 24 27.0777 24C27.8399 24 28.5544 24.2329 29.1446 24.6272L29.478 24.2461C29.65 24.0503 29.8829 23.9021 30.1422 23.8412C29.2928 23.177 28.2342 22.7694 27.0777 22.7694C26.6464 22.7694 26.2415 22.8197 25.8472 22.9282C25.4052 23.0394 24.9977 23.2114 24.6166 23.4337C24.1482 23.7036 23.7301 24.0371 23.386 24.4419C22.6239 25.3153 22.1555 26.4479 22.1555 27.6917C22.1555 28.9355 22.6239 30.0681 23.386 30.9415C23.7301 31.3463 24.1482 31.6798 24.6166 31.9497C24.9977 32.172 25.4052 32.344 25.8472 32.4552C26.2415 32.5663 26.6464 32.614 27.0777 32.614C29.7982 32.614 32 30.4122 32 27.6917C32 26.9401 31.828 26.2283 31.521 25.5878H31.5184ZM29.6103 25.0215L27.0751 27.9881L27.038 28.0251L25.8445 26.8316L25.6593 26.6464C25.5481 26.5246 25.3893 26.4611 25.2279 26.4611C25.0665 26.4611 24.9077 26.522 24.7966 26.6464C24.6722 26.7575 24.6113 26.9163 24.6113 27.0777C24.6113 27.2392 24.6722 27.398 24.7966 27.5091L25.8419 28.5544L26.6411 29.3536C26.7522 29.478 26.911 29.5389 27.0724 29.5389H27.0963C27.2683 29.5256 27.4297 29.4515 27.5382 29.3298L30.3698 26.043L30.8753 25.4529C31.0976 25.1935 31.0711 24.8019 30.8144 24.5796C30.6927 24.4816 30.5551 24.4314 30.4095 24.4314C30.2375 24.4314 30.0655 24.5055 29.9411 24.6404L29.6077 25.0215H29.6103ZM19.0751 25.2306H8C7.65597 25.2306 7.38339 25.5005 7.38339 25.8472C7.38339 26.1938 7.65332 26.4638 8 26.4638H19.0777C19.4218 26.4638 19.6943 26.1938 19.6943 25.8472C19.6943 25.5005 19.4244 25.2306 19.0777 25.2306H19.0751ZM19.0751 28.9223H8C7.65597 28.9223 7.38339 29.1922 7.38339 29.5389C7.38339 29.8855 7.65332 30.1555 8 30.1555H19.0777C19.4218 30.1555 19.6943 29.8855 19.6943 29.5389C19.6943 29.1922 19.4244 28.9223 19.0777 28.9223H19.0751ZM8.47899 4.3083C8.1826 3.98809 8 3.55673 8 3.07774C8 2.05624 8.82567 1.23057 9.84717 1.23057H11.8028C12.049 0.516044 12.737 0 13.5389 0C14.3407 0 15.0288 0.516044 15.2749 1.23057H17.2306C18.2521 1.23057 19.0777 2.05624 19.0777 3.07774C19.0777 3.55673 18.8925 3.98809 18.5987 4.3083C18.2653 4.68938 17.7731 4.92491 17.2332 4.92491H9.84982C9.30731 4.92491 8.81508 4.69203 8.48429 4.3083H8.47899ZM9.23057 3.07774C9.23057 3.42177 9.5005 3.69434 9.84717 3.69434H17.2306C17.5746 3.69434 17.8472 3.42441 17.8472 3.07774C17.8472 2.73106 17.5772 2.46113 17.2306 2.46113H14.7694C14.4254 2.46113 14.1528 2.1912 14.1528 1.84453C14.1528 1.49785 13.8829 1.22792 13.5362 1.22792C13.1895 1.22792 12.9196 1.49785 12.9196 1.84453C12.9196 2.1912 12.6497 2.46113 12.303 2.46113H9.84188C9.49785 2.46113 9.22527 2.73106 9.22527 3.07774H9.23057Z" fill="#F25C05"/>
</g>
<defs>
<clipPath id="clip0_1162_837">
<rect width="32" height="37.5362" fill="white"/>
</clipPath>
</defs>
</svg>
