<svg width="49" height="30" viewBox="0 0 49 30" fill="none" xmlns="http://www.w3.org/2000/svg">
<g clip-path="url(#clip0_1162_841)">
<path d="M1.89355 14.5931C1.59508 14.4513 1.23964 14.5788 1.09855 14.8763C0.369349 16.412 0 18.0573 0 19.7657C0 21.474 0.367314 23.1193 1.09143 24.6601C1.19352 24.8762 1.40787 25.0027 1.63239 25.0027C1.71752 25.0027 1.80367 24.9847 1.88575 24.9457C2.18421 24.8056 2.31174 24.4502 2.172 24.1517C1.52284 22.7713 1.19352 21.296 1.19352 19.7657C1.19352 18.2354 1.52454 16.7627 2.17675 15.3881C2.31852 15.0903 2.19133 14.7345 1.89355 14.5931Z" fill="#F25C05"/>
<path d="M4.05775 19.7645C4.05775 18.7222 4.25819 17.7231 4.65399 16.7944C4.78322 16.4912 4.64246 16.1405 4.33857 16.0116C4.03502 15.8817 3.68534 16.0232 3.55578 16.3267C3.09656 17.4042 2.86389 18.5608 2.86389 19.7648C2.86389 20.9688 3.0969 22.1278 3.55748 23.2066C3.65414 23.4335 3.87494 23.5696 4.10659 23.5696C4.18459 23.5696 4.26464 23.5539 4.34095 23.5214C4.64382 23.3922 4.78491 23.0415 4.65569 22.7386C4.25887 21.8083 4.05775 20.8077 4.05775 19.7648V19.7645Z" fill="#F25C05"/>
<path d="M47.4856 14.8763C47.3445 14.5788 46.9883 14.4513 46.6906 14.5931C46.3928 14.7345 46.2659 15.0903 46.4074 15.3881C47.0596 16.7624 47.3906 18.2354 47.3906 19.7657C47.3906 21.296 47.0613 22.7727 46.4121 24.1517C46.2724 24.4498 46.3999 24.8053 46.6984 24.9457C46.7804 24.9844 46.8669 25.0027 46.9517 25.0027C47.1762 25.0027 47.3906 24.8762 47.492 24.6601C48.2168 23.121 48.5841 21.474 48.5841 19.7657C48.5841 18.0573 48.2148 16.412 47.4856 14.8766V14.8763Z" fill="#F25C05"/>
<path d="M44.2459 16.0114C43.943 16.1406 43.8012 16.4909 43.9305 16.7941C44.3256 17.7234 44.526 18.7226 44.526 19.7645C44.526 20.8064 44.3249 21.809 43.9281 22.738C43.7989 23.0412 43.9396 23.3915 44.2428 23.5208C44.3191 23.5537 44.3985 23.5693 44.4772 23.5693C44.7085 23.5693 44.9296 23.4333 45.0263 23.2064C45.4865 22.1288 45.7199 20.9706 45.7199 19.7642C45.7199 18.5578 45.4875 17.4043 45.0287 16.3264C44.8998 16.0229 44.5484 15.8825 44.2459 16.011V16.0114Z" fill="#F25C05"/>
<path d="M19.6562 2.23441C19.742 2.23441 19.8288 2.21609 19.9116 2.17675C22.6605 0.871649 25.9158 0.874363 28.6752 2.17166C28.9747 2.31275 29.3291 2.18353 29.4695 1.88575C29.6093 1.58728 29.4818 1.23184 29.1833 1.09177C27.6428 0.367314 25.9958 0 24.2885 0C22.5811 0 20.9352 0.369349 19.3998 1.09855C19.102 1.23998 18.9752 1.5961 19.1166 1.89355C19.2187 2.10892 19.433 2.23441 19.6562 2.23441Z" fill="#F25C05"/>
<path d="M20.8497 3.55533C20.5465 3.68455 20.4051 4.03491 20.5343 4.33812C20.6625 4.64133 21.0139 4.78174 21.3171 4.65354C23.1777 3.86193 25.4047 3.86295 27.2613 4.65524C27.3376 4.6878 27.4176 4.7034 27.4956 4.7034C27.7269 4.7034 27.9477 4.56739 28.0444 4.34049C28.1736 4.03762 28.0328 3.68692 27.7296 3.5577C25.5753 2.63857 23.0081 2.63755 20.8494 3.55533H20.8497Z" fill="#F25C05"/>
<path d="M28.5928 21.4753H18.8531C18.1802 21.4753 17.6355 22.02 17.6355 22.6929C17.6355 24.036 18.7272 25.1278 20.0703 25.1278H27.3752C28.7183 25.1278 29.8101 24.036 29.8101 22.6929C29.8101 22.02 29.2654 21.4753 28.5925 21.4753H28.5928ZM27.3752 23.9105H20.0703C19.3974 23.9105 18.8527 23.3658 18.8527 22.6929H28.5925C28.5925 23.3658 28.0478 23.9105 27.3749 23.9105H27.3752ZM11.5482 23.9105C11.5482 24.5834 11.0035 25.1281 10.3306 25.1281C9.65767 25.1281 9.11297 24.5834 9.11297 23.9105C9.11297 23.2376 9.65767 22.6929 10.3306 22.6929C11.0035 22.6929 11.5482 23.2376 11.5482 23.9105ZM38.3349 23.9105C38.3349 24.5834 37.7902 25.1281 37.1173 25.1281C36.4444 25.1281 35.8997 24.5834 35.8997 23.9105C35.8997 23.2376 36.4444 22.6929 37.1173 22.6929C37.7902 22.6929 38.3349 23.2376 38.3349 23.9105ZM41.6889 11.8848H38.7619C38.301 11.8848 37.8849 12.1416 37.678 12.555L37.4972 12.9139L34.4627 8.36093C33.8319 7.41568 32.8001 6.80586 31.6666 6.73227C29.0195 6.55963 26.3699 6.47314 23.7231 6.47314C21.0763 6.47314 18.4264 6.55963 15.7796 6.73227C14.6461 6.80552 13.6116 7.41568 12.9835 8.36093L9.94901 12.9139L9.76824 12.555C9.56135 12.1412 9.14519 11.8848 8.68427 11.8848H5.75695C5.08948 11.8848 4.54478 12.4295 4.54478 13.097C4.54478 13.5579 4.80153 13.9741 5.21497 14.181L8.13177 15.6394L7.69968 16.2885C7.03221 17.2887 6.67609 18.4643 6.67609 19.6659V28.7826C6.67609 29.4555 7.22078 30.0002 7.89368 30.0002H12.7634C13.4363 30.0002 13.981 29.4555 13.981 28.7826V27.565H33.4632V28.7826C33.4632 29.4555 34.0079 30.0002 34.6808 30.0002H39.5505C40.2234 30.0002 40.7681 29.4555 40.7681 28.7826V19.6659C40.7681 18.4643 40.412 17.2887 39.7445 16.2885L39.3124 15.6394L42.2292 14.181C42.643 13.9741 42.8994 13.5579 42.8994 13.097C42.8994 12.4292 42.3547 11.8848 41.6872 11.8848H41.6899H41.6889ZM8.6785 13.0997L9.15232 14.0477L8.77279 14.6002L5.77493 13.1024H8.6785V13.0997ZM39.5525 28.783H34.6828V27.5654C34.6828 26.8925 34.1381 26.3478 33.4652 26.3478H13.983C13.3101 26.3478 12.7654 26.8925 12.7654 27.5654V28.783H7.893V19.6663C7.893 18.7027 8.17586 17.768 8.71005 16.9641L13.9935 9.03891C14.4151 8.40536 15.1114 7.997 15.8576 7.94986C18.4678 7.7796 21.1122 7.69311 23.7228 7.69311C26.3333 7.69311 28.9774 7.7796 31.588 7.94986C32.3317 7.99972 33.028 8.40536 33.4523 9.03891L38.7358 16.9641C39.27 17.768 39.5529 18.7 39.5529 19.6663V28.783H39.5525ZM38.6727 14.6002L38.2932 14.0477L38.7619 13.1024H41.6655L38.6727 14.5975V14.6002ZM37.526 17.3962L32.1299 18.2967C31.1403 18.4619 30.4202 19.3101 30.4202 20.3154C30.4202 20.6532 30.6926 20.9252 31.0304 20.9252H37.1177C38.1257 20.9252 38.9451 20.1058 38.9451 19.0978V18.5979C38.9451 18.2394 38.7881 17.9016 38.5157 17.6686C38.2406 17.4356 37.8794 17.3359 37.5287 17.3962H37.526ZM37.7251 19.0954C37.7251 19.4305 37.4528 19.7056 37.115 19.7056H31.902C32.0173 19.5981 32.1639 19.5248 32.3287 19.4987L37.7248 18.5979V19.0978V19.0951L37.7251 19.0954ZM15.3159 18.2943L9.91984 17.3939C9.57152 17.3335 9.2076 17.4332 8.93288 17.6662C8.66053 17.8992 8.5035 18.237 8.5035 18.5959V19.0958C8.5035 20.1038 9.32292 20.9232 10.3309 20.9232H16.4182C16.756 20.9232 17.028 20.6508 17.028 20.313C17.028 19.3078 16.308 18.4595 15.3183 18.2943H15.3156H15.3159ZM10.3282 19.7029C9.9931 19.7029 9.71804 19.4305 9.71804 19.0927V18.5928L15.1141 19.4933C15.279 19.5194 15.4258 19.5954 15.5408 19.7002H10.3279V19.7029H10.3282ZM11.6319 15.388H35.8136C36.0388 15.388 36.2457 15.2649 36.3501 15.0658C36.4549 14.8668 36.4444 14.6287 36.3186 14.4401L32.9412 9.37638C32.6244 8.89986 32.1008 8.59359 31.5456 8.55696C26.3587 8.21916 21.0807 8.21916 15.8966 8.55696C15.3417 8.59359 14.8204 8.89986 14.5009 9.37638L11.1235 14.4401C10.9977 14.6259 10.9875 14.8668 11.092 15.0658C11.1968 15.2649 11.4037 15.388 11.6289 15.388H11.6316H11.6319ZM15.5147 10.0523C15.6246 9.8875 15.7975 9.7827 15.9756 9.77218C21.1099 9.43709 26.3333 9.43709 31.4676 9.77218C31.648 9.7827 31.8182 9.8875 31.9285 10.0523L34.675 14.1708H12.7708L15.5174 10.0523H15.5147Z" fill="#F25C05"/>
</g>
<defs>
<clipPath id="clip0_1162_841">
<rect width="48.5841" height="30" fill="white"/>
</clipPath>
</defs>
</svg>
