<svg width="28" height="33" viewBox="0 0 28 33" fill="none" xmlns="http://www.w3.org/2000/svg">
<g clip-path="url(#clip0_1162_831)">
<path d="M20.5959 23.8308L5.66208 24.6282L5.737 23.4963C6.02332 19.2524 6.17317 17.1251 5.38914 12.694C5.11621 11.1018 3.99503 9.80672 2.47783 9.29564L1.24694 8.88623V7.46804H3.08792C3.58563 7.46804 4.04587 7.24327 4.35627 6.84457C4.66667 6.44587 4.76567 5.94816 4.65596 5.50129L3.9094 1.23333C3.7221 0.510851 3.07454 0.00244141 2.32798 0.00244141H0V25.9367C0.286315 25.5139 0.647554 25.1527 1.07034 24.8664C1.13188 24.8423 1.18272 24.8048 1.24427 24.7673V10.1947L2.07913 10.481C3.16284 10.8423 3.97095 11.7761 4.16896 12.908C4.9289 17.2001 4.77905 19.2792 4.49274 23.4107L4.41781 24.5185C4.55428 24.556 4.68005 24.6175 4.79243 24.679C5.10283 24.8289 5.37844 25.0162 5.62729 25.2517C5.82531 25.4256 6.00191 25.6263 6.16246 25.8377L20.6602 25.0777C21.2836 25.0403 21.867 25.3132 22.2416 25.8109C22.6269 26.3086 22.7259 26.9321 22.5279 27.5288L21.3345 31.1118H5.17775C4.58104 31.4971 3.87194 31.7352 3.112 31.7352C2.62768 31.7352 2.14067 31.6362 1.71789 31.4623C2.45107 32.0216 3.37424 32.3587 4.35627 32.3587H22.2255L23.7053 27.9168C24.0291 26.9455 23.8551 25.8751 23.2317 25.0537C22.6082 24.2322 21.6261 23.7853 20.5933 23.8335L20.5959 23.8308ZM1.24427 1.24403H2.32798C2.50191 1.24403 2.65176 1.35642 2.68922 1.49288L3.44916 5.76085C3.48662 5.9107 3.42508 6.02308 3.37424 6.08463C3.33677 6.13547 3.23777 6.2211 3.08792 6.2211H1.24694V1.24403H1.24427ZM3.112 30.4883C4.48203 30.4883 5.60054 29.3671 5.60054 27.9998C5.60054 27.2532 5.26338 26.5816 4.74159 26.132C4.66667 26.0571 4.58104 25.9822 4.49274 25.9206C4.09404 25.6584 3.62041 25.5112 3.112 25.5112C2.51529 25.5112 1.96674 25.7226 1.53058 26.0839C1.5172 26.0972 1.49312 26.1079 1.47974 26.1347C1.39144 26.1962 1.30581 26.2846 1.24427 26.3702C0.845566 26.8063 0.620795 27.379 0.620795 27.9998C0.620795 29.0942 1.34327 30.0281 2.32531 30.3652C2.57416 30.4401 2.83639 30.491 3.10933 30.491L3.112 30.4883ZM3.112 29.244C2.42699 29.244 1.86774 28.6848 1.86774 27.9998C1.86774 27.3148 2.42699 26.7555 3.112 26.7555C3.79702 26.7555 4.35627 27.3148 4.35627 27.9998C4.35627 28.6848 3.79702 29.244 3.112 29.244ZM23.8551 15.8782L27.1143 19.1374L27.9973 21.7758L22.9694 16.7479L23.8524 15.8755L23.8551 15.8782ZM11.2733 16.9352C10.0665 15.7284 9.80428 14.0854 10.5134 12.1802C11.086 10.5988 12.3437 8.81934 14.1338 7.0292C18.1904 2.97263 21.8001 1.92637 24.0264 4.16605C25.2706 5.41032 25.6453 7.28876 25.2332 9.30634C25.0967 9.38126 24.9602 9.48027 24.8479 9.59266L23.2932 11.1473C24.4866 8.79526 24.5134 6.40573 23.1567 5.04908C22.6216 4.52729 21.9981 4.26506 21.2515 4.26506C20.7913 4.26506 20.2695 4.36406 19.7076 4.57545C18.3001 5.08654 16.6705 6.2425 15.0034 7.90955C13.3471 9.5766 12.1911 11.1955 11.6693 12.6003C11.1342 14.056 11.2947 15.1878 12.1537 16.0468C13.0608 16.9566 14.4683 17.267 16.1246 16.9298C16.8337 16.7933 17.5562 16.5311 18.2519 16.1833L16.9327 17.5024C16.7588 17.6764 16.6223 17.8878 16.534 18.1125C16.4832 18.1259 16.4216 18.1366 16.3735 18.15C15.8624 18.2624 15.3647 18.3105 14.8937 18.3105C13.4381 18.3105 12.1804 17.8369 11.2733 16.9298V16.9352ZM24.3154 11.8832L25.7336 10.4757C25.8459 10.3499 26.0065 10.2884 26.1697 10.2884C26.333 10.2884 26.4935 10.3499 26.6059 10.4757C26.8547 10.7112 26.8547 11.1099 26.6059 11.348L18.6908 19.2738C18.565 19.3969 18.4044 19.4478 18.2546 19.4478C18.094 19.4478 17.9308 19.3969 17.8077 19.2738C17.5723 19.025 17.5723 18.6397 17.8077 18.3908L18.9904 17.2081L24.3047 11.9073L24.318 11.8832H24.3154ZM18.5329 12.3113L15.0141 8.79258C14.7706 8.54908 14.7706 8.15573 15.0141 7.91223C15.2576 7.66873 15.651 7.66873 15.8945 7.91223L19.4132 11.431C19.6567 11.6745 19.6567 12.0678 19.4132 12.3113C19.2928 12.4317 19.1323 12.4933 18.9744 12.4933C18.8165 12.4933 18.656 12.4317 18.5356 12.3113H18.5329ZM17.492 13.0739C17.7997 13.2264 17.9228 13.6011 17.7703 13.9088C17.6606 14.1282 17.4411 14.254 17.2137 14.254C17.12 14.254 17.0264 14.2326 16.9354 14.1871L13.4167 12.4264C13.1089 12.2738 12.9859 11.8992 13.1384 11.5915C13.2909 11.2838 13.6655 11.1607 13.9732 11.3132L17.492 13.0739ZM20.1758 10.3901L18.4151 6.87133C18.2626 6.5636 18.3857 6.18899 18.6934 6.03646C18.9985 5.88394 19.3758 6.00703 19.5283 6.31475L21.289 9.83348C21.4415 10.1412 21.3184 10.5158 21.0107 10.6683C20.9224 10.7138 20.8261 10.7352 20.7324 10.7352C20.505 10.7352 20.2856 10.6095 20.1758 10.3901Z" fill="#F25C05"/>
</g>
<defs>
<clipPath id="clip0_1162_831">
<rect width="28" height="32.3563" fill="white"/>
</clipPath>
</defs>
</svg>
