<svg width="40" height="27" viewBox="0 0 40 27" fill="none" xmlns="http://www.w3.org/2000/svg">
<g clip-path="url(#clip0_1162_850)">
<path d="M38.73 7.52994H35.68C35.2 7.52994 34.77 7.79994 34.55 8.22994L34.36 8.59994L31.2 3.84994C30.54 2.85994 29.47 2.22994 28.28 2.14994C26.7 2.04994 25.11 1.97994 23.53 1.93994C23.57 2.14994 23.6 2.36994 23.6 2.59994C23.6 2.80994 23.57 3.01994 23.54 3.21994C25.1 3.25994 26.66 3.32994 28.21 3.42994C28.99 3.47994 29.71 3.90994 30.15 4.56994L35.66 12.8299C36.22 13.6699 36.51 14.6399 36.51 15.6499V25.1599H31.43V23.8899C31.43 23.1899 30.86 22.6199 30.16 22.6199H9.84C9.14 22.6199 8.57 23.1899 8.57 23.8899V25.1599H3.49V15.6499C3.49 14.6499 3.78 13.6699 4.34 12.8299L9.85 4.56994C10.29 3.90994 11.02 3.47994 11.79 3.42994C13.34 3.32994 14.9 3.25994 16.46 3.21994C16.42 3.01994 16.4 2.80994 16.4 2.59994C16.4 2.37994 16.43 2.15994 16.47 1.93994C14.89 1.97994 13.3 2.04994 11.72 2.14994C10.54 2.22994 9.46 2.85994 8.8 3.84994L5.64 8.59994L5.45 8.22994C5.23 7.79994 4.8 7.52994 4.32 7.52994H1.26C0.56 7.52994 0 8.09994 0 8.78994C0 9.26994 0.27 9.69994 0.7 9.91994L3.74 11.4399L3.29 12.1199C2.59 13.1599 2.22 14.3899 2.22 15.6399V25.1499C2.22 25.8499 2.79 26.4199 3.49 26.4199H8.57C9.27 26.4199 9.84 25.8499 9.84 25.1499V23.8799H30.16V25.1499C30.16 25.8499 30.73 26.4199 31.43 26.4199H36.51C37.21 26.4199 37.78 25.8499 37.78 25.1499V15.6399C37.78 14.3899 37.41 13.1599 36.71 12.1199L36.26 11.4399L39.3 9.91994C39.73 9.69994 40 9.26994 40 8.78994C40 8.08994 39.43 7.52994 38.74 7.52994H38.73ZM1.28 8.79994H4.31L4.8 9.78994L4.4 10.3699L1.27 8.80994L1.28 8.79994ZM35.59 10.3599L35.19 9.78994L35.68 8.79994H38.71L35.59 10.3599Z" fill="#F25C05"/>
<path d="M4.76 20.0698C4.76 20.7698 5.33 21.3398 6.03 21.3398C6.73 21.3398 7.3 20.7698 7.3 20.0698C7.3 19.3698 6.73 18.7998 6.03 18.7998C5.33 18.7998 4.76 19.3698 4.76 20.0698Z" fill="#F25C05"/>
<path d="M35.24 20.0698C35.24 19.3698 34.67 18.7998 33.97 18.7998C33.27 18.7998 32.7 19.3698 32.7 20.0698C32.7 20.7698 33.27 21.3398 33.97 21.3398C34.67 21.3398 35.24 20.7698 35.24 20.0698Z" fill="#F25C05"/>
<path d="M20 5.2C18.57 5.2 17.4 4.03 17.4 2.6C17.4 1.17 18.57 0 20 0C21.43 0 22.6 1.17 22.6 2.6C22.6 4.03 21.43 5.2 20 5.2ZM20 1.3C19.28 1.3 18.7 1.88 18.7 2.6C18.7 3.32 19.28 3.9 20 3.9C20.72 3.9 21.3 3.32 21.3 2.6C21.3 1.88 20.72 1.3 20 1.3Z" fill="#F25C05"/>
<path d="M20 21.4401C18.39 21.4401 17.08 20.1301 17.08 18.5201C17.08 16.9101 18.39 15.6001 20 15.6001C21.61 15.6001 22.92 16.9101 22.92 18.5201C22.92 20.1301 21.61 21.4401 20 21.4401ZM20 16.8901C19.1 16.8901 18.38 17.6201 18.38 18.5101C18.38 19.4001 19.11 20.1301 20 20.1301C20.89 20.1301 21.62 19.4001 21.62 18.5101C21.62 17.6201 20.89 16.8901 20 16.8901Z" fill="#F25C05"/>
<path d="M20 16.8899C19.64 16.8899 19.35 16.5999 19.35 16.2399V4.5499C19.35 4.1899 19.64 3.8999 20 3.8999C20.36 3.8999 20.65 4.1899 20.65 4.5499V16.2399C20.65 16.5999 20.36 16.8899 20 16.8899Z" fill="#F25C05"/>
<path d="M29.42 18.1901C27.81 18.1901 26.5 16.8801 26.5 15.2701C26.5 13.6601 27.81 12.3501 29.42 12.3501C31.03 12.3501 32.34 13.6601 32.34 15.2701C32.34 16.8801 31.03 18.1901 29.42 18.1901ZM29.42 13.6401C28.52 13.6401 27.8 14.3701 27.8 15.2601C27.8 16.1501 28.53 16.8801 29.42 16.8801C30.31 16.8801 31.04 16.1501 31.04 15.2601C31.04 14.3701 30.31 13.6401 29.42 13.6401Z" fill="#F25C05"/>
<path d="M27.81 14.3101C27.64 14.3101 27.48 14.2501 27.35 14.1201L23.76 10.5301C23.64 10.4101 23.57 10.2401 23.57 10.0701V5.52012C23.57 5.16012 23.86 4.87012 24.22 4.87012C24.58 4.87012 24.87 5.16012 24.87 5.52012V9.80012L28.27 13.2001C28.52 13.4501 28.52 13.8701 28.27 14.1201C28.14 14.2501 27.98 14.3101 27.81 14.3101Z" fill="#F25C05"/>
<path d="M10.58 18.1901C8.97 18.1901 7.66 16.8801 7.66 15.2701C7.66 13.6601 8.97 12.3501 10.58 12.3501C12.19 12.3501 13.5 13.6601 13.5 15.2701C13.5 16.8801 12.19 18.1901 10.58 18.1901ZM10.58 13.6401C9.68 13.6401 8.96 14.3701 8.96 15.2601C8.96 16.1501 9.69 16.8801 10.58 16.8801C11.47 16.8801 12.2 16.1501 12.2 15.2601C12.2 14.3701 11.47 13.6401 10.58 13.6401Z" fill="#F25C05"/>
<path d="M12.19 14.3101C12.02 14.3101 11.86 14.2501 11.73 14.1201C11.48 13.8701 11.48 13.4501 11.73 13.2001L15.13 9.80012V5.52012C15.13 5.16012 15.42 4.87012 15.78 4.87012C16.14 4.87012 16.43 5.16012 16.43 5.52012V10.0701C16.43 10.2401 16.36 10.4101 16.24 10.5301L12.65 14.1201C12.52 14.2501 12.36 14.3101 12.19 14.3101Z" fill="#F25C05"/>
</g>
<defs>
<clipPath id="clip0_1162_850">
<rect width="40" height="26.42" fill="white"/>
</clipPath>
</defs>
</svg>
