<svg width="60" height="59" viewBox="0 0 60 59" fill="none" xmlns="http://www.w3.org/2000/svg">
<g clip-path="url(#clip0_687_1480)">
<path d="M29.8318 22.9857C26.3195 22.9561 23.4467 25.7765 23.4172 29.2888C23.3844 32.8011 26.208 35.6739 29.7203 35.7034C33.2326 35.7329 36.1054 32.9126 36.1349 29.4003C36.1677 25.888 33.3441 23.0152 29.8318 22.9857Z" fill="white"/>
<path d="M39.4144 14.0131C36.1579 13.5146 23.9321 13.5572 20.5346 13.9376C17.1863 14.3115 14.9628 16.3841 14.4578 19.7062C13.9199 23.2349 14.0315 36.4216 14.4643 39.0615C14.9202 41.8261 16.491 43.7118 19.2359 44.4792C22.1055 45.2827 35.9218 45.0925 39.0143 44.7547C42.3823 44.3874 44.6058 42.3115 45.1174 38.9599C45.6355 35.5788 45.5372 23.2743 45.1928 20.126C44.8255 16.7514 42.7529 14.5247 39.4111 14.0131H39.4144ZM29.7761 39.1862C24.3453 39.1862 19.9443 34.7786 19.9443 29.3478C19.9443 23.917 24.3519 19.516 29.7827 19.516C35.2134 19.516 39.6145 23.9236 39.6145 29.3544C39.6145 34.7851 35.2069 39.1862 29.7761 39.1862ZM39.9982 21.441C38.7257 21.441 37.6993 20.4047 37.7025 19.1323C37.7025 17.8599 38.7389 16.8334 40.0113 16.8334C41.2837 16.8334 42.3102 17.8697 42.3069 19.1421C42.3069 20.4146 41.2706 21.441 39.9982 21.441Z" fill="white"/>
<path d="M50.535 8.59542C44.9927 3.05315 37.6238 -2.28882e-05 29.7826 -2.28882e-05C21.9415 -2.28882e-05 14.5758 3.05315 9.03026 8.59542C3.48799 14.1377 0.434814 21.5099 0.434814 29.3478C0.434814 37.1857 3.48799 44.5579 9.03026 50.1002C14.5725 55.6425 21.9447 58.6956 29.7826 58.6956C37.6205 58.6956 44.9927 55.6425 50.535 50.1002C56.0773 44.5579 59.1305 37.1857 59.1305 29.3478C59.1305 21.5099 56.0773 14.1377 50.535 8.59542ZM48.387 40.4192C47.2392 44.7842 44.3992 47.375 39.985 48.0899C36.6465 48.631 21.7808 48.7327 18.7538 47.9521C14.3823 46.8273 11.7752 43.9971 11.0471 39.5863C10.5126 36.3593 10.3289 21.3197 11.2439 18.0566C12.4311 13.813 15.2481 11.3075 19.5409 10.6057C23.2992 9.99247 34.0033 10.1466 38.5125 10.3926C41.1591 10.5336 43.5727 11.3633 45.5437 13.249C47.4195 15.0363 48.387 17.2696 48.6461 19.7948C48.9543 22.8151 49.2626 37.0709 48.3837 40.4192H48.387Z" fill="white"/>
</g>
<defs>
<clipPath id="clip0_687_1480">
<rect width="58.6957" height="58.6989" fill="white" transform="translate(0.434814 -2.28882e-05)"/>
</clipPath>
</defs>
</svg>
