<svg width="479" height="95" viewBox="0 0 479 95" fill="none" xmlns="http://www.w3.org/2000/svg">
<g clip-path="url(#clip0_1162_427)">
<path d="M262.138 41.0727C262.138 44.2886 262.09 47.5044 262.154 50.7043C262.185 52.5988 261.358 53.8087 259.638 54.4933C257.823 55.2097 255.945 55.6395 254.034 55.9738C247.746 57.0564 241.378 57.1997 235.01 57.136C231.428 57.1042 227.862 56.929 224.312 56.5151C221.51 56.1967 218.74 55.751 216.033 54.8913C214.68 54.4614 213.773 53.6654 213.168 52.3441C210.366 46.3104 207.453 40.3086 204.651 34.2749C204.125 33.1605 203.377 32.5078 202.247 32.1416C200.257 31.4889 198.203 31.1228 196.118 30.884C189.845 30.1994 183.541 30.2153 177.237 30.5337C174.514 30.677 171.808 30.9636 169.149 31.6004C168.974 31.6481 168.799 31.6959 168.624 31.7436C167.525 32.0461 167.414 32.1894 167.414 33.3197C167.414 38.4778 167.414 43.6199 167.414 48.778C167.414 49.8765 167.573 50.0834 168.624 50.3541C170.916 50.959 173.257 51.2456 175.613 51.4207C180.819 51.8187 186.024 51.8346 191.23 51.6118C196.197 51.4048 201.053 50.6725 205.701 48.8417C206.37 48.587 206.386 48.587 206.641 49.1919C207.198 50.4655 207.707 51.755 208.296 53.0286C208.519 53.5062 208.36 53.745 207.978 53.9838C207.357 54.3818 206.688 54.6366 205.988 54.8754C203.743 55.6077 201.419 56.0375 199.063 56.34C191.533 57.3111 183.971 57.327 176.393 56.8972C172.492 56.6743 168.608 56.2445 164.819 55.2574C163.848 55.0027 162.909 54.7002 162.001 54.2545C160.664 53.6018 159.995 52.551 159.979 51.0705C159.979 50.3382 159.979 49.6218 159.979 48.8894C159.979 43.2219 160.011 37.5544 159.979 31.8869C159.963 29.2124 160.616 28.2572 163.227 27.3338C165.488 26.5219 167.844 26.108 170.216 25.7896C176.839 24.914 183.493 24.7866 190.164 25.0254C194.08 25.1687 197.964 25.4553 201.817 26.1557C203.425 26.4423 205.017 26.8085 206.561 27.3816C207.867 27.8592 208.854 28.7188 209.538 29.9128C210.35 31.3138 210.939 32.8103 211.592 34.259C213.661 38.8758 215.715 43.4926 217.737 48.1253C218.103 48.9531 218.644 49.4466 219.44 49.765C221.207 50.4655 223.038 50.8158 224.901 51.0546C230.664 51.8028 236.427 51.8506 242.222 51.6595C245.501 51.5481 248.749 51.3252 251.981 50.7043C252.554 50.5929 253.111 50.4814 253.652 50.3222C254.544 50.0834 254.719 49.8446 254.719 48.9054C254.719 45.992 254.719 43.0946 254.719 40.1812C254.719 37.8728 254.719 35.5804 254.719 33.272C254.719 32.2053 254.592 32.0461 253.557 31.7596C251.471 31.1864 249.338 30.9158 247.205 30.7248C242.492 30.3108 237.764 30.2472 233.036 30.4064C229.247 30.5337 225.474 30.7407 221.765 31.6163C219.934 32.0461 218.151 32.6192 216.4 33.272C215.795 33.4948 215.779 33.4948 215.524 32.9376C214.951 31.6322 214.41 30.3268 213.837 29.0213C213.661 28.6393 213.725 28.4164 214.059 28.1935C214.537 27.8751 215.062 27.6204 215.604 27.4293C217.928 26.5856 220.332 26.1398 222.768 25.8214C229.327 24.9458 235.918 24.8185 242.54 25.0413C246.472 25.1846 250.405 25.4871 254.289 26.1717C255.865 26.4423 257.441 26.8085 258.954 27.3338C259.24 27.4293 259.511 27.5408 259.797 27.6681C261.437 28.3368 262.217 29.5308 262.185 31.3456C262.138 34.5933 262.185 37.8251 262.185 41.0727H262.138Z" fill="white"/>
<path d="M49.3997 42.6487V31.2023C49.3997 30.868 49.3997 30.5336 49.4156 30.1993C49.4475 28.5437 50.3072 27.477 51.8196 26.9357C53.6503 26.2671 55.5607 25.9487 57.4711 25.6462C62.7247 24.8184 68.0102 24.5159 73.3115 24.4363C78.6765 24.3408 84.0256 24.5637 89.3748 25.1368C92.1767 25.4393 94.9627 25.8373 97.685 26.5696C98.3855 26.7606 99.0859 26.9676 99.7068 27.3497C100.63 27.9069 101.124 28.7188 101.235 29.7854C101.283 30.1834 101.283 30.5655 101.283 30.9635C101.283 38.9235 101.283 46.8994 101.283 54.8753C101.283 56.1648 101.347 55.9738 100.153 55.9897C98.3377 55.9897 96.5228 55.9897 94.692 55.9897C93.8164 55.9897 93.8164 55.9897 93.8164 55.0822C93.8164 49.0167 93.8164 42.9671 93.8164 36.9016C93.8164 35.5962 93.8164 34.2908 93.8164 33.0012C93.8164 31.664 93.7368 31.5684 92.4155 31.2023C91.0145 30.8043 89.5817 30.5973 88.133 30.4222C85.554 30.1038 82.9431 29.9605 80.3481 29.8491C80.0775 29.8491 79.8069 29.8491 79.5362 29.8491C79.186 29.8332 79.0427 30.0083 79.0745 30.3426C79.0745 30.5814 79.0745 30.8361 79.0745 31.0749V54.6206C79.0745 54.8594 79.0745 55.1141 79.0745 55.3529C79.0586 56.0056 79.0586 56.0215 78.4377 56.0374C76.3841 56.0374 74.3145 56.0374 72.2608 56.0374C71.7832 56.0374 71.5922 55.8782 71.6399 55.4166C71.6558 55.1778 71.6399 54.939 71.6399 54.6842C71.6399 46.7402 71.6399 38.812 71.6399 30.868C71.6399 29.7854 71.7673 29.8332 70.6051 29.865C66.8798 30.0083 63.1546 30.2152 59.493 30.9476C58.9358 31.059 58.3627 31.2023 57.8214 31.3615C57.0731 31.6003 56.9139 31.8232 56.8821 32.6032C56.8821 32.9376 56.8821 33.2719 56.8821 33.6062V54.7002C56.8821 54.9071 56.8821 55.13 56.8821 55.337C56.8662 56.0215 56.8662 56.0374 56.1498 56.0374C54.1439 56.0374 52.1539 56.0374 50.148 56.0374C49.4156 56.0374 49.3997 56.0374 49.3997 55.2733C49.3997 51.0863 49.3997 46.9153 49.3997 42.7283" fill="white"/>
<path d="M319.211 43.4289V55.337C319.211 55.5599 319.211 55.7668 319.211 55.9738C319.243 56.3559 319.067 56.5151 318.685 56.5151C317.746 56.4992 316.807 56.5151 315.868 56.5151C314.689 56.5151 313.511 56.5151 312.317 56.5151C311.888 56.5151 311.712 56.3559 311.744 55.942C311.76 55.7032 311.744 55.4644 311.744 55.2097V33.4789C311.744 32.2371 311.617 32.0939 310.455 31.7436C309.022 31.3138 307.557 31.0909 306.093 30.9158C303.418 30.5815 300.728 30.4223 298.037 30.3267C297.83 30.3267 297.607 30.3267 297.4 30.3267C297.098 30.3267 296.955 30.4382 296.955 30.7407C296.955 31.0113 296.955 31.2819 296.955 31.5526C296.955 39.4966 296.955 47.4248 296.955 55.3688C296.955 56.6743 296.986 56.4832 295.824 56.4832C294.009 56.4832 292.195 56.4832 290.364 56.4832C289.536 56.4832 289.52 56.4832 289.52 55.6236C289.52 49.3829 289.52 43.1423 289.52 36.9017C289.52 34.9276 289.52 32.9535 289.52 30.9954C289.52 30.5974 289.488 30.2949 288.947 30.3267C284.792 30.4859 280.653 30.6611 276.593 31.6003C274.746 32.0302 274.746 32.062 274.746 33.9724V55.4166C274.746 56.6584 274.778 56.4992 273.68 56.4992C271.833 56.4992 269.986 56.4992 268.139 56.4992C267.264 56.4992 267.264 56.4992 267.264 55.5917C267.264 48.8894 267.264 42.203 267.264 35.5007C267.264 34.1635 267.264 32.8421 267.264 31.5048C267.264 31.1705 267.264 30.8362 267.312 30.5019C267.455 28.9417 268.315 27.9547 269.763 27.4293C270.941 27.0154 272.151 26.7447 273.361 26.5059C278.647 25.503 283.98 25.1368 289.345 24.9776C295.347 24.7866 301.333 25.0095 307.303 25.6463C310.248 25.9647 313.193 26.3786 316.043 27.2223C316.218 27.2701 316.393 27.3179 316.568 27.3815C318.415 28.0343 319.179 29.085 319.211 31.0591C319.227 32.1575 319.211 33.2401 319.211 34.3227V43.413V43.4289Z" fill="white"/>
<path d="M44.162 26.0124C43.6526 27.493 43.1113 29.0372 42.57 30.5655C42.4427 30.9476 42.172 30.8362 41.9014 30.8043C40.3412 30.6133 38.7811 30.4382 37.205 30.3108C33.4957 29.9924 29.7704 29.8014 26.0451 29.8014C21.683 29.8014 17.321 29.7377 12.9589 30.0083C11.5102 30.1039 10.0615 30.2312 8.61274 30.3904C7.57795 30.5019 7.41875 30.6929 7.41875 31.6959C7.41875 33.3993 7.41875 35.0868 7.41875 36.7903C7.41875 37.4748 7.41875 37.4748 8.11922 37.4907C8.48538 37.4907 8.85154 37.4907 9.2177 37.4907C19.6612 37.4907 30.1206 37.4907 40.5641 37.4907C41.6944 37.4907 41.6785 37.3315 41.6785 38.637C41.6785 39.8469 41.6785 41.0568 41.6785 42.2667C41.6785 42.7284 41.5193 42.9513 41.0417 42.8876C40.8348 42.8717 40.6119 42.8876 40.4049 42.8876C29.7704 42.8876 19.1358 42.8876 8.5013 42.8876C7.24363 42.8876 7.40283 42.7284 7.40283 44.002C7.40283 45.785 7.40283 47.584 7.40283 49.367C7.40283 50.3541 7.53019 50.5451 8.51722 50.6566C10.1092 50.8317 11.7171 50.9909 13.3091 51.0705C18.4831 51.3093 23.6571 51.357 28.847 51.2137C33.1773 51.0864 37.4916 50.8317 41.79 50.2267C42.2835 50.163 42.5064 50.2904 42.6496 50.7362C43.0636 51.9938 43.5093 53.2515 43.9392 54.5092C44.1461 55.146 44.1461 55.146 43.5252 55.2574C41.2328 55.6713 38.9084 55.942 36.6 56.1489C29.3724 56.7698 22.1288 56.6584 14.9011 56.4992C11.2395 56.4196 7.57795 56.2445 3.94819 55.6236C3.16811 55.4962 2.40396 55.3211 1.67164 55.0345C0.589079 54.6206 0.0637205 53.8087 -0.0158793 52.6784C-0.0317993 52.3122 -0.0317993 51.9461 -0.0317993 51.5799V29.4034C-0.0317993 29.0691 -0.0317993 28.7348 -0.0158793 28.4004C0.0478005 27.2383 0.589079 26.4104 1.70348 25.9647C2.64276 25.5985 3.62979 25.4234 4.61683 25.2801C6.44763 24.9936 8.27842 24.8344 10.1251 24.7388C17.3528 24.3568 24.5964 24.2453 31.8241 24.5478C35.7881 24.7229 39.7363 25.0572 43.6526 25.7736C43.7959 25.8055 43.9551 25.7736 44.1302 25.9965" fill="white"/>
<path d="M140.35 30.8519C138.949 30.8519 137.644 30.8519 136.339 30.8519C132.741 30.8678 129.127 30.8838 125.529 30.9156C120.1 30.9634 114.687 31.0111 109.259 31.0589C107.794 31.0589 107.937 31.2818 107.937 29.7853C107.937 28.846 107.937 27.9067 107.937 26.9675C107.937 26.1078 107.937 26.1078 108.765 26.0919C109.736 26.0919 110.707 26.06 111.678 26.06C118.126 26.0282 124.574 26.0123 131.037 25.9804C136.88 25.9645 142.722 25.9327 148.581 25.9008C149.584 25.9008 150.587 25.8053 151.574 25.9486C153.15 26.1874 153.85 26.9675 153.85 28.5754C153.85 29.1803 154.042 29.849 153.771 30.3743C153.5 30.8997 152.816 31.0748 152.306 31.3932C142.245 37.5861 132.199 43.763 122.138 49.94C121.82 50.1469 121.501 50.3539 121.055 50.6245C121.533 50.8315 121.883 50.7678 122.233 50.7678C132.359 50.7678 142.468 50.7678 152.593 50.7678C153.516 50.7678 153.978 51.2348 153.978 52.1688C153.978 53.0125 153.978 53.8722 153.978 54.716C153.978 55.91 154.057 55.7667 152.895 55.7667C150.077 55.7667 147.26 55.7667 144.442 55.7826C138.599 55.7985 132.757 55.8304 126.898 55.8622C121.501 55.894 116.12 55.9259 110.723 55.9577C110.23 55.9577 109.752 55.9577 109.291 55.7985C108.622 55.5916 108.208 55.1617 108.112 54.4612C107.969 53.4105 108.065 52.3439 108.049 51.2772C108.049 50.8474 108.415 50.7519 108.686 50.5768C110.707 49.3191 112.761 48.0614 114.783 46.8037C123.077 41.6775 131.372 36.5672 139.666 31.441C139.889 31.2977 140.159 31.2181 140.366 30.836" fill="white"/>
<path d="M478.682 11.1909C478.682 11.1909 478.65 11.0795 478.634 11.0317C477.201 6.1602 473.301 0.333496 462.762 0.333496H382.573C381.872 0.333496 381.172 0.540456 380.583 0.938455L380.01 1.32053C379.5 1.67077 379.086 2.14837 378.816 2.70557L348.329 66.1944C347.835 67.2133 347.867 68.3914 348.393 69.3784L348.6 69.7605C349.205 70.9067 350.415 71.639 351.72 71.639H353.71C352.898 72.642 352.277 73.7564 351.863 74.9981C351.433 76.2717 351.258 77.5453 351.306 78.7712C351.354 79.9333 351.561 81.0159 351.911 81.987C352.118 82.5442 352.325 83.0855 352.548 83.6268C350.781 82.592 348.536 82.9741 347.071 84.6934L345.495 86.6197C345.065 87.0973 344.763 87.6386 344.556 88.2117C343.935 90.138 344.827 92.1599 346.642 93.0036C349.221 94.2772 352.42 94.914 356.114 94.914C361.383 94.914 364.806 93.5767 367.035 91.7778C367.067 91.8574 367.067 91.937 367.099 92.0166C367.672 93.5131 369.073 94.4683 370.681 94.4683H378.911C379.723 94.4683 380.519 94.2295 381.267 93.7678C382 93.322 382.573 92.733 382.923 92.0962L391.249 77.5613H393.271L393.207 81.0477L388.845 88.6893C388.288 89.74 388.224 90.9659 388.638 91.9847C389.211 93.4812 390.612 94.4364 392.22 94.4364H400.467C401.279 94.4364 402.091 94.1976 402.855 93.72C403.587 93.2583 404.16 92.6693 404.463 92.0803L408.857 84.4068L409.844 83.5472L406.914 88.6893C406.851 88.8167 406.755 89.0236 406.708 89.151C406.676 89.2147 406.66 89.2784 406.644 89.342C406.373 90.1699 406.389 91.0455 406.676 91.8733C406.708 91.9688 406.755 92.0644 406.787 92.1599C407.424 93.5608 408.761 94.4364 410.305 94.4364H424.713C425.334 94.4364 425.939 94.2931 426.528 94.0225C427.053 94.2931 427.658 94.4364 428.279 94.4364H443.881C444.693 94.4364 445.505 94.1976 446.269 93.72C447.001 93.2583 447.574 92.6693 447.877 92.0643L449.309 89.5331C449.867 88.4983 449.962 87.3361 449.548 86.1899C449.373 85.7282 449.118 85.3143 448.784 84.964C449.516 84.5024 450.058 83.9133 450.376 83.3084L451.809 80.7293C452.318 79.7264 452.414 78.5961 452.048 77.5453H453.512C454.324 77.5453 455.136 77.3065 455.884 76.8289C456.601 76.3832 457.158 75.7941 457.492 75.1733L458.861 72.7534C458.957 72.5783 459.1 72.2917 459.18 72.1166C459.228 71.9734 459.275 71.8301 459.307 71.6868C459.498 70.8908 459.45 70.0789 459.116 69.2192C459.498 68.4391 459.578 67.5317 459.323 66.6561L454.181 49.8128C460.947 49.5899 465.261 48.0775 469.623 38.8121L475.498 26.283C478.523 19.8514 479.557 14.8843 478.65 11.1432L478.682 11.1909ZM370.41 79.2488C370.251 78.8189 370.076 78.405 369.916 78.007C369.916 78.007 369.948 78.007 369.964 78.007C370.633 78.214 371.333 78.2458 372.066 78.1025C372.671 77.9752 373.244 77.7205 373.737 77.3702C373.769 77.3702 373.785 77.4021 373.817 77.4021L371.047 82.2577C370.967 81.1751 370.776 80.1562 370.426 79.2488H370.41Z" fill="#1D1D1B"/>
<path d="M475.259 12.0188C473.667 6.59011 469.512 3.8678 462.777 3.8678H382.589L382.015 4.24988L351.529 67.7387L351.736 68.1208H384.929L385.502 67.7387L396.025 47.0587L396.598 46.6766H419.077L419.173 46.8676C426.337 65.5099 426.575 67.1974 427.005 68.1367H455.406L455.98 67.7546L449.452 46.3741C458.877 46.39 462.125 46.5811 466.455 37.3634L472.329 24.8344C474.972 19.1987 475.943 14.9322 475.243 12.0188H475.259ZM444.66 18.9758L437.56 36.4719C435.507 39.0669 432.689 40.3564 429.139 40.3564H399.241L411.308 11.8596H441.795C447.781 11.8596 445.616 16.9699 444.676 18.9758H444.66Z" fill="#CD1126"/>
<path d="M365.761 74.9025C365.586 75.4597 365.554 76.0488 365.681 76.6697C365.809 77.2905 366.016 77.9114 366.302 78.5323C366.589 79.1532 366.844 79.8059 367.114 80.4905C367.369 81.175 367.528 81.971 367.56 82.8784C367.608 83.7859 367.464 84.7252 367.146 85.6804C365.872 89.5012 362.211 91.4116 356.145 91.4116C352.977 91.4116 350.335 90.9021 348.233 89.8514C347.978 89.724 347.883 89.5489 347.947 89.326C347.994 89.1987 348.074 89.0713 348.201 88.928L349.841 86.938C350.048 86.6992 350.255 86.5878 350.462 86.5878C350.573 86.5878 350.685 86.6196 350.796 86.6833C352.006 87.3997 353.121 87.7659 354.139 87.7659C354.744 87.7659 355.222 87.6385 355.54 87.3997C355.875 87.1609 356.114 86.7948 356.273 86.3172C356.48 85.6963 356.543 85.0595 356.448 84.4068C356.352 83.754 356.193 83.1491 355.954 82.576C355.716 82.0029 355.477 81.3979 355.254 80.777C355.031 80.1561 354.888 79.4397 354.856 78.6278C354.824 77.8159 354.951 76.9881 355.238 76.1284C355.875 74.218 357.228 72.7215 359.298 71.623C361.367 70.5246 364.01 69.9833 367.194 69.9833C368.738 69.9833 370.012 70.1266 371.015 70.3972C372.018 70.6838 372.877 71.1136 373.594 71.7026C373.753 71.8618 373.801 72.037 373.737 72.228C373.689 72.3554 373.61 72.4827 373.466 72.6419L371.731 74.4249C371.636 74.5205 371.508 74.6001 371.365 74.6319C371.222 74.6637 371.11 74.6637 371.015 74.6319C370.919 74.6001 370.84 74.5682 370.76 74.5205C369.821 73.8359 368.881 73.5016 367.926 73.5016C366.796 73.5016 366.079 73.9792 365.761 74.9185V74.9025ZM394.401 73.8996C394.576 73.7881 394.704 73.6449 394.783 73.4857L396.184 71.0022C396.184 71.0022 396.216 70.9385 396.232 70.9066C396.264 70.8111 396.248 70.6997 396.232 70.6042C396.184 70.4768 396.089 70.4131 395.945 70.4131H377.144C376.969 70.4131 376.778 70.4768 376.603 70.5882C376.427 70.6997 376.3 70.843 376.22 70.9862L374.82 73.4697C374.82 73.4697 374.788 73.5493 374.772 73.5653C374.74 73.6767 374.756 73.7722 374.772 73.8677C374.82 73.9951 374.915 74.0588 375.058 74.0588H379.325C379.484 74.0588 379.564 74.0906 379.595 74.1384C379.627 74.2021 379.595 74.3135 379.484 74.4886L370.442 90.3608C370.362 90.5041 370.346 90.6315 370.394 90.7588C370.442 90.8862 370.537 90.9499 370.68 90.9499H378.911C379.054 90.9499 379.229 90.8862 379.42 90.7588C379.611 90.6315 379.755 90.5041 379.834 90.3608L388.925 74.4886C389.084 74.2021 389.307 74.0588 389.593 74.0588H393.828C394.003 74.0588 394.194 73.9951 394.369 73.8837L394.401 73.8996ZM419.395 70.6042C419.427 70.4927 419.348 70.429 419.141 70.429H415.049C414.635 70.429 414.221 70.6201 413.776 71.0181L406.516 77.4179L406.644 71.0181C406.644 70.636 406.468 70.429 406.086 70.429H397.537C397.235 70.429 397.044 70.5405 396.964 70.7793C396.948 70.843 396.932 70.9226 396.932 71.0022L396.725 82.0506L391.981 90.3768C391.902 90.52 391.886 90.6474 391.933 90.7748C391.981 90.9021 392.077 90.9658 392.22 90.9658H400.467C400.61 90.9658 400.785 90.9021 400.976 90.7748C401.167 90.6474 401.31 90.52 401.39 90.3768L406.07 82.178L419.013 71.0022C419.22 70.827 419.348 70.6838 419.379 70.5882L419.395 70.6042ZM426.814 87.3201H421.64C421.369 87.3201 421.322 87.1768 421.481 86.8744L430.492 71.0022C430.571 70.8589 430.587 70.7315 430.523 70.6042C430.476 70.4768 430.38 70.4131 430.237 70.4131H422.006C421.783 70.4131 421.608 70.4609 421.481 70.5405C421.338 70.6201 421.21 70.7793 421.083 71.0022L410.066 90.3768C410.066 90.3768 410.034 90.4404 410.019 90.4723C409.987 90.5837 409.987 90.6792 410.019 90.7748C410.066 90.9021 410.178 90.9658 410.305 90.9658H424.713C424.856 90.9658 425.031 90.9021 425.222 90.7748C425.413 90.6474 425.556 90.52 425.636 90.3768L427.037 87.8932C427.037 87.8932 427.069 87.8296 427.085 87.7977C427.117 87.6863 427.117 87.5908 427.085 87.4952C427.037 87.3679 426.941 87.3042 426.798 87.3042L426.814 87.3201ZM455.9 70.6201C455.852 70.4927 455.757 70.429 455.613 70.429H439.996C439.773 70.429 439.598 70.4768 439.455 70.5564C439.311 70.636 439.184 70.7952 439.057 71.0181L428.04 90.3927C428.04 90.3927 428.008 90.4564 427.992 90.4882C427.96 90.5996 427.96 90.6952 427.992 90.7907C428.04 90.918 428.151 90.9817 428.279 90.9817H443.88C444.024 90.9817 444.199 90.918 444.39 90.7907C444.581 90.6633 444.724 90.536 444.804 90.3927L446.205 87.9092C446.284 87.7659 446.3 87.6385 446.252 87.5112C446.205 87.3838 446.109 87.3201 445.966 87.3201H439.63C439.359 87.3201 439.311 87.1768 439.47 86.8744L441.954 82.5282C442.081 82.3213 442.288 82.2098 442.591 82.2098H446.396C446.539 82.2098 446.714 82.1461 446.905 82.0188C447.096 81.8914 447.239 81.7641 447.319 81.6208L448.704 79.1373C448.784 78.994 448.8 78.8666 448.752 78.7393C448.704 78.6119 448.609 78.5482 448.465 78.5482H444.644C444.374 78.5482 444.294 78.4209 444.406 78.198L446.428 74.6319C446.507 74.4886 446.634 74.3613 446.841 74.2339C447.032 74.1065 447.208 74.0429 447.335 74.0429H453.544C453.687 74.0429 453.862 73.9792 454.053 73.8518C454.244 73.7245 454.387 73.5971 454.467 73.4538L455.868 70.9703C455.868 70.9703 455.9 70.9066 455.916 70.8748C455.948 70.7793 455.932 70.6678 455.916 70.5723L455.9 70.6201Z" fill="#979696"/>
</g>
<defs>
<clipPath id="clip0_1162_427">
<rect width="479" height="94.6124" fill="white" transform="translate(0 0.333496)"/>
</clipPath>
</defs>
</svg>
