<svg width="295" height="36" viewBox="0 0 295 36" fill="none" xmlns="http://www.w3.org/2000/svg">
<g clip-path="url(#clip0_189_2096)">
<path d="M29.0769 0C13.0033 0 0 8.06689 0 18C0 27.9331 13.0033 36 29.0769 36C45.1505 36 58.1538 27.9331 58.1538 18C58.1538 8.06689 45.1204 0 29.0769 0ZM57.5819 14.5987H15.1104L16.7358 17.6087C16.7358 17.6087 17.0368 18.1505 17.6087 18.5719C17.7592 18.6923 17.9699 18.8127 18.1505 18.903C18.301 18.9632 18.4515 19.0234 18.5719 19.0535C18.6923 19.0836 18.8127 19.1137 18.903 19.1137C19.204 19.1739 20.0769 19.1438 20.0769 19.1438C20.0769 19.1438 35.9699 19.1438 36.0301 19.1438C36.0903 19.1438 40.1237 19.1438 42.7124 21.2207C43.5251 21.8528 44.3378 22.8462 44.5485 23.8696C44.6388 24.291 44.6689 24.6823 44.6689 25.0736C44.5485 28.0836 41.1171 29.9498 40.8161 30.1605C40.5753 30.311 38.7692 31.4247 35.9398 31.8763C32.6288 32.4783 29.6187 32.5084 28.8662 32.5084C26.1572 32.5084 23.8094 32.2375 20.9498 31.6355C17.4883 30.8829 13.9967 29.3478 11.8595 27.8729C9.75251 26.4281 8.24749 25.0134 6.98328 22.9064C5.56856 20.5585 5.59866 18.2107 5.59866 18.0301C5.59866 17.4883 5.65886 15.9833 6.29097 14.4482C7.31438 11.9498 9.1505 9.93311 11.8294 8.09699C14.9599 5.92977 18.5117 4.96656 19.6254 4.63545C20.9799 4.24415 24.5619 3.40134 28.5652 3.40134C28.5652 3.40134 31.0936 3.40134 32.087 3.52174C33.3211 3.64214 34.194 3.73244 35.2475 3.91304C39.8227 4.66555 42.9231 6.11037 44.8495 7.19398C46.9565 8.36789 48.612 9.72241 49.9064 11.2575C50.3278 11.7993 50.8094 12.2508 51.4415 12.4615L57.5819 14.5385" fill="white"/>
<path d="M77.0268 19.6254H83.8595V22.9365H75.0401C72.3612 22.9365 70.4348 20.7391 70.4348 18.0602V17.3378C70.4348 14.9599 72.0903 13.0034 74.4983 13.0034H89.4281V9.45151H72.8729C68.1773 9.45151 64.3545 13.2743 64.3545 17.9699C64.3545 22.6656 68.1773 26.4883 72.8729 26.4883H89.699V16.4047H77.0268V19.5953V19.6254Z" fill="white"/>
<path d="M126.151 18.0903V17.3679C126.151 14.99 127.806 13.0334 130.214 13.0334H143.94V9.48161H128.589C123.893 9.48161 120.07 13.3043 120.07 18C120.07 22.6957 123.893 26.5184 128.589 26.5184H143.97V22.9666H130.726C128.047 22.9666 126.12 20.7692 126.12 18.0903H126.151Z" fill="white"/>
<path d="M107.91 9.48161H104.358H102.492L92.0468 26.5184H98.2174L100.324 22.8161H110.649L108.753 19.505H102.221L106.134 12.5819L114.08 26.5184H120.251L109.806 9.48161H107.91Z" fill="white"/>
<path d="M290.619 20.6488C290.318 20.2274 289.896 19.8662 289.355 19.8361L287.368 19.6555C290.619 19.5953 294.351 16.6756 293.659 13.3345C293.207 11.0769 291.431 9.54181 287.699 9.54181H269.217V26.5786H275.027V19.8361H280.084C282.431 19.8361 283.635 19.806 285.02 21.9431L288 26.5786H294.893L290.589 20.709L290.619 20.6488ZM285.201 16.796H275.027V13.0334H286.224C287.548 13.0334 288.151 13.786 288.151 14.7492C288.151 15.7124 287.609 16.796 285.171 16.796H285.201Z" fill="white"/>
<path d="M196.615 9C188.97 9 182.739 11.4682 182.739 18C182.739 24.5318 188.94 27 196.615 27C204.291 27 210.492 24.5318 210.492 18C210.492 11.4682 204.291 9 196.615 9ZM196.615 23.2375C192.341 23.2375 188.88 21.8829 188.88 18C188.88 14.1171 192.341 12.7625 196.615 12.7625C200.89 12.7625 204.351 14.1171 204.351 18C204.351 21.8829 200.89 23.2375 196.615 23.2375Z" fill="white"/>
<path d="M252.391 9C244.746 9 238.515 11.4682 238.515 18C238.515 24.5318 244.716 27 252.391 27C260.067 27 266.268 24.5318 266.268 18C266.268 11.4682 260.067 9 252.391 9ZM252.391 23.2375C248.117 23.2375 244.656 21.8829 244.656 18C244.656 14.1171 248.117 12.7625 252.391 12.7625C256.666 12.7625 260.127 14.1171 260.127 18C260.127 21.8829 256.666 23.2375 252.391 23.2375Z" fill="white"/>
<path d="M227.558 9.48161H221.478V26.5184H227.558V9.48161Z" fill="white"/>
<path d="M236.739 9.48161H212.268V13.0334H236.739V9.48161Z" fill="white"/>
<path d="M174.672 9.48161L166.124 17.1873L157.545 9.48161H152.368V26.5184H158.177V16.7057L164.89 22.9666H167.358L174.04 16.7057V26.5184H179.88V9.48161H174.672Z" fill="white"/>
</g>
<defs>
<clipPath id="clip0_189_2096">
<rect width="294.923" height="36" fill="white"/>
</clipPath>
</defs>
</svg>
